<svg xmlns="http://www.w3.org/2000/svg" version="1.1" xmlns:xlink="http://www.w3.org/1999/xlink" xmlns:svgjs="http://svgjs.dev/svgjs" width="1000" height="750" viewBox="0 0 1000 750"><rect width="1000" height="750" fill="#ffffff"></rect><g transform="matrix(0.834,0,0,0.834,82.49455099329742,115.4193570850203)"><svg viewBox="0 0 396 247" data-background-color="#ffffff" preserveAspectRatio="xMidYMid meet" height="623" width="1000" xmlns="http://www.w3.org/2000/svg" xmlns:xlink="http://www.w3.org/1999/xlink"><g id="tight-bounds" transform="matrix(1,0,0,1,0.23999737008898592,-0.09999999999999432)"><svg viewBox="0 0 395.52 247.2" height="247.2" width="395.52"><g><svg></svg></g><g><svg viewBox="0 0 395.52 247.2" height="247.2" width="395.52"><g><path xmlns="http://www.w3.org/2000/svg" d="M55.039 247.2l45.425-78.678h1.563l-44.601 77.251h280.668l-44.601-77.251 1.563 0 45.425 78.678zM197.76 0l45.425 78.678-1.563 0-43.862-75.971-43.862 75.971-1.563 0z" fill="#0080ff" fill-rule="nonzero" stroke="none" stroke-width="1" stroke-linecap="butt" stroke-linejoin="miter" stroke-miterlimit="10" stroke-dasharray="" stroke-dashoffset="0" font-family="none" font-weight="none" font-size="none" text-anchor="none" style="mix-blend-mode: normal" data-fill-palette-color="tertiary"></path></g><g transform="matrix(1,0,0,1,0,91.51301325881423)"><svg viewBox="0 0 395.52 64.17397348237152" height="64.17397348237152" width="395.52"><g><svg viewBox="0 0 516.5654229218144 83.81385455222124" height="64.17397348237152" width="395.52"><g><rect width="2.6996537050727065" height="60.95001723949516" x="111.27861292073982" y="11.431918656363042" fill="#0080ff" opacity="1" stroke-width="0" stroke="transparent" fill-opacity="1" class="rect-o-0" data-fill-palette-color="primary" rx="1%" id="o-0" data-palette-color="#0080ff"></rect></g><g transform="matrix(1,0,0,1,121.04542292181438,11.58353561467024)"><svg viewBox="0 0 395.52 60.646783322880765" height="60.646783322880765" width="395.52"><g id="textblocktransform"><svg viewBox="0 0 395.52 60.646783322880765" height="60.646783322880765" width="395.52" id="textblock"><g><svg viewBox="0 0 395.52 29.93593713889531" height="29.93593713889531" width="395.52"><g transform="matrix(1,0,0,1,0,0)"><svg width="395.52" viewBox="-8.300000190734863 -32 432.67999267578125 32.75" height="29.93593713889531" data-palette-color="#0080ff"><g class="wordmark-text-0" data-fill-palette-color="primary" id="text-0"><path d="M12.9-19.4L12.9-19.4-8.3-21.65 13.25-21.65Q13-20.65 12.9-19.4ZM-6.9-26.45L14.6-26.45 13.85-24.25-6.9-26.45ZM-7.85-16.85L12.9-16.85Q13-15.5 13.3-14.6L13.3-14.6-7.85-16.85ZM19.9-9.8L19.9-9.8-6.55-12.05 15-12.05Q16.65-10.45 19.9-9.8ZM-3.15-31.25L18.35-31.25Q17.2-30.5 16.15-29.2L16.15-29.2-3.15-31.25ZM10.55-5.05L-7.4-7.25 11.3-7.25 10.55-5.05ZM8.95-0.2L-8.25-2.4 9.7-2.4 8.95-0.2ZM10.65-0.55L13.45-8.8Q17.65-7.65 21.13-7.65 24.6-7.65 26.8-7.95L26.8-7.95 27.2-10.45 23.05-10.85Q18.3-11.3 16.32-13 14.35-14.7 14.35-17.8L14.35-17.8Q14.35-19.15 14.65-20.8L14.65-20.8Q15.8-27.2 18.85-29.6 21.9-32 28.23-32 34.55-32 39.4-30.75L39.4-30.75 36.8-22.75Q32.45-23.5 29.83-23.5 27.2-23.5 25.3-23.25L25.3-23.25 24.9-20.8 28.25-20.45Q33.35-19.9 35.5-18.03 37.65-16.15 37.65-13L37.65-13Q37.65-9.8 36.3-6.4L36.3-6.4Q35.55-4.65 34.73-3.48 33.9-2.3 32.63-1.48 31.35-0.65 30.3-0.23 29.25 0.2 27.6 0.4L27.6 0.4Q25.3 0.75 21.9 0.75L21.9 0.75Q15.7 0.75 10.65-0.55L10.65-0.55ZM78.15-31.25L76.7-23.25 69.8-23.25 65.75 0 56.25 0 60.3-23.25 53.45-23.25 54.9-31.25 78.15-31.25ZM55.1-2.4L54.7-0.15 33.5-2.4 55.1-2.4ZM56.8-12.05L56.4-9.8 35.2-12.05 56.8-12.05ZM57.65-16.85L57.25-14.6 36.05-16.85 57.65-16.85ZM58.5-21.65L58.1-19.4 36.9-21.65 58.5-21.65ZM55.95-7.25L55.55-5 34.35-7.25 55.95-7.25ZM52.45-26.45L52.1-24.2 30.9-26.45 52.45-26.45ZM53.3-31.25L52.9-29 31.75-31.25 53.3-31.25ZM108.8-19.05L107.5-11.8 98-11.8 97.34-8 109-8 107.59 0 86.45 0 91.95-31.25 112.84-31.25 110.25-23.25 100-23.25 99.3-19.05 108.8-19.05ZM85.34-2.4L84.95-0.15 63.75-2.4 85.34-2.4ZM87.05-12.05L86.65-9.8 65.45-12.05 87.05-12.05ZM87.9-16.85L87.5-14.6 66.3-16.85 87.9-16.85ZM88.75-21.65L88.34-19.4 67.15-21.65 88.75-21.65ZM89.55-26.45L89.2-24.2 68-26.45 89.55-26.45ZM86.2-7.25L85.8-5 64.59-7.25 86.2-7.25ZM90.4-31.25L90-29 68.84-31.25 90.4-31.25ZM139.74-7.55L139.74-7.55 133.54-7.55 132.24 0 122.74 0 128.24-31.25 143.24-31.25Q151.74-31.25 151.74-23.35L151.74-23.35Q151.74-19.6 150.69-16.57 149.64-13.55 148.37-11.78 147.09-10 144.87-8.78 142.64-7.55 139.74-7.55ZM134.94-15.55L137.14-15.55Q138.84-15.55 139.72-15.93 140.59-16.3 140.84-17.65L140.84-17.65Q141.49-21.35 141.49-21.7L141.49-21.7Q141.49-22.65 140.74-22.95 139.99-23.25 138.49-23.25L138.49-23.25 136.29-23.25 134.94-15.55ZM121.64-2.4L121.24-0.15 100.04-2.4 121.64-2.4ZM123.34-12.05L122.94-9.8 101.74-12.05 123.34-12.05ZM124.99-21.65L124.59-19.4 103.44-21.65 124.99-21.65ZM125.84-26.45L125.44-24.2 104.29-26.45 125.84-26.45ZM122.49-7.25L122.09-5 100.89-7.25 122.49-7.25ZM126.69-31.25L126.29-29 105.14-31.25 126.69-31.25ZM124.14-16.85L123.74-14.6 102.59-16.85 124.14-16.85ZM166.69-31.25L182.09-31.25Q185.69-31.25 187.31-30 188.94-28.75 188.94-26.15L188.94-26.15Q188.94-22.35 187.27-19.9 185.59-17.45 183.19-16.85L183.19-16.85 183.14-16.55Q187.64-15.7 187.64-10.6L187.64-10.6Q187.64-6.1 185.19-3.05 182.74 0 178.29 0L178.29 0 161.19 0 166.69-31.25ZM176.59-12.45L176.59-12.45 172.84-12.45 171.94-7.35 175.64-7.35Q176.89-7.35 177.54-8.35 178.19-9.35 178.19-10.9 178.19-12.45 176.59-12.45ZM177.99-24.4L177.99-24.4 174.99-24.4 174.14-19.75 177.09-19.75Q179.39-19.75 179.39-23L179.39-23Q179.39-24.4 177.99-24.4ZM160.09-2.4L159.69-0.15 138.49-2.4 160.09-2.4ZM161.79-12.05L161.39-9.8 140.19-12.05 161.79-12.05ZM162.64-16.85L162.24-14.6 141.04-16.85 162.64-16.85ZM163.49-21.65L163.09-19.4 141.89-21.65 163.49-21.65ZM164.29-26.45L163.94-24.2 142.74-26.45 164.29-26.45ZM160.94-7.25L160.54-5 139.34-7.25 160.94-7.25ZM165.14-31.25L164.74-29 143.59-31.25 165.14-31.25ZM205.39-31.25L220.39-31.25Q228.94-31.25 228.94-23.6L228.94-23.6Q228.94-20.45 227.99-17.6L227.99-17.6Q226.24-12.2 222.49-10.4L222.49-10.4 225.79 0 215.34 0 213.04-9.3 210.99-9.3 209.39 0 199.89 0 205.39-31.25ZM212.34-17L214.54-17Q216.24-17 217.11-17.38 217.99-17.75 218.31-19.53 218.64-21.3 218.64-21.7L218.64-21.7Q218.64-22.7 217.86-22.98 217.09-23.25 215.34-23.25L215.34-23.25 213.44-23.25 212.34-17ZM198.79-2.4L198.39-0.15 177.19-2.4 198.79-2.4ZM200.49-12.05L200.09-9.8 178.89-12.05 200.49-12.05ZM202.14-21.65L201.74-19.4 180.59-21.65 202.14-21.65ZM202.99-26.45L202.59-24.2 181.44-26.45 202.99-26.45ZM199.64-7.25L199.24-5 178.04-7.25 199.64-7.25ZM203.84-31.25L203.44-29 182.29-31.25 203.84-31.25ZM201.29-16.85L200.89-14.6 179.74-16.85 201.29-16.85ZM249.24-7.8L253.19-7.8Q255.13-7.8 256.08-8.28 257.04-8.75 257.33-10.45L257.33-10.45 259.63-23.45 255.63-23.45Q253.74-23.45 252.78-22.98 251.84-22.5 251.53-20.8L251.53-20.8 249.24-7.8ZM257.29-32L257.29-32Q263.63-32 266.33-29.53 269.04-27.05 269.04-21.9 269.04-16.75 267.41-11.13 265.79-5.5 262.26-2.38 258.74 0.75 251.96 0.75 245.19 0.75 242.49-1.73 239.78-4.2 239.78-9.35L239.78-9.35Q239.78-11.8 240.49-15.83 241.19-19.85 242.34-22.78 243.49-25.7 245.44-27.85L245.44-27.85Q249.19-32 257.29-32ZM239.19-16.85L239.03-15.85Q238.94-15.45 238.84-14.75L238.84-14.75 219.19-16.85 239.19-16.85ZM218.63-12.05L238.49-12.05Q238.34-10.9 238.34-9.95L238.34-9.95 218.63-12.05ZM220.38-21.65L240.38-21.65 239.78-19.6 220.38-21.65ZM219.28-7.25L238.38-7.25Q238.59-5.85 238.74-5.15L238.74-5.15 219.28-7.25ZM222.74-26.45L242.44-26.45Q241.74-25.15 241.44-24.45L241.44-24.45 222.74-26.45ZM224.09-2.4L239.88-2.4Q240.53-1.25 241.38-0.55L241.38-0.55 224.09-2.4ZM229.63-31.25L247.19-31.25Q245.74-30.35 244.94-29.6L244.94-29.6 229.63-31.25ZM308.43-31.25L306.98-23.25 300.08-23.25 296.03 0 286.53 0 290.58-23.25 283.73-23.25 285.18-31.25 308.43-31.25ZM285.38-2.4L284.98-0.15 263.78-2.4 285.38-2.4ZM287.08-12.05L286.68-9.8 265.48-12.05 287.08-12.05ZM287.93-16.85L287.53-14.6 266.33-16.85 287.93-16.85ZM288.78-21.65L288.38-19.4 267.18-21.65 288.78-21.65ZM286.23-7.25L285.83-5 264.63-7.25 286.23-7.25ZM282.73-26.45L282.38-24.2 261.18-26.45 282.73-26.45ZM283.58-31.25L283.18-29 262.03-31.25 283.58-31.25ZM342.88 0L333.38 0 335.28-11.05 328.13-11.05 326.23 0 316.73 0 322.23-31.25 331.73-31.25 329.78-20.2 336.93-20.2 338.88-31.25 348.38-31.25 342.88 0ZM315.63-2.4L315.23-0.15 294.03-2.4 315.63-2.4ZM317.33-12.05L316.93-9.8 295.73-12.05 317.33-12.05ZM318.18-16.85L317.78-14.6 296.58-16.85 318.18-16.85ZM319.03-21.65L318.63-19.4 297.43-21.65 319.03-21.65ZM319.83-26.45L319.48-24.2 298.28-26.45 319.83-26.45ZM316.48-7.25L316.08-5 294.88-7.25 316.48-7.25ZM320.68-31.25L320.28-29 299.13-31.25 320.68-31.25ZM381.38-19.05L380.08-11.8 370.58-11.8 369.93-8 381.58-8 380.18 0 359.03 0 364.53-31.25 385.43-31.25 382.83-23.25 372.58-23.25 371.88-19.05 381.38-19.05ZM357.93-2.4L357.53-0.15 336.33-2.4 357.93-2.4ZM359.63-12.05L359.23-9.8 338.03-12.05 359.63-12.05ZM360.48-16.85L360.08-14.6 338.88-16.85 360.48-16.85ZM361.33-21.65L360.93-19.4 339.73-21.65 361.33-21.65ZM362.13-26.45L361.78-24.2 340.58-26.45 362.13-26.45ZM358.78-7.25L358.38-5 337.18-7.25 358.78-7.25ZM362.98-31.25L362.58-29 341.43-31.25 362.98-31.25ZM400.83-31.25L415.83-31.25Q424.38-31.25 424.38-23.6L424.38-23.6Q424.38-20.45 423.43-17.6L423.43-17.6Q421.68-12.2 417.93-10.4L417.93-10.4 421.23 0 410.78 0 408.48-9.3 406.43-9.3 404.83 0 395.33 0 400.83-31.25ZM407.78-17L409.98-17Q411.68-17 412.55-17.38 413.43-17.75 413.75-19.53 414.08-21.3 414.08-21.7L414.08-21.7Q414.08-22.7 413.3-22.98 412.53-23.25 410.78-23.25L410.78-23.25 408.88-23.25 407.78-17ZM394.23-2.4L393.83-0.15 372.63-2.4 394.23-2.4ZM395.93-12.05L395.53-9.8 374.33-12.05 395.93-12.05ZM397.58-21.65L397.18-19.4 376.03-21.65 397.58-21.65ZM398.43-26.45L398.03-24.2 376.88-26.45 398.43-26.45ZM395.08-7.25L394.68-5 373.48-7.25 395.08-7.25ZM399.28-31.25L398.88-29 377.73-31.25 399.28-31.25ZM396.73-16.85L396.33-14.6 375.18-16.85 396.73-16.85Z" fill="#0080ff" data-fill-palette-color="primary"></path></g></svg></g></svg></g><g transform="matrix(1,0,0,1,0,37.00309343489716)"><svg viewBox="0 0 232.209792 23.643689887983612" height="23.643689887983612" width="232.209792"><g transform="matrix(1,0,0,1,0,0)"><svg width="232.209792" viewBox="0.49000000953674316 -40.5 524.3500366210938 53.38999938964844" height="23.643689887983612" data-palette-color="#0080ff"><path d="M17.33 0L0.49-38.16 8.94-38.16 19.29-13.53 21.68-7.57 23.56-13.53 27.37-22.51 20.51-38.16 28.47-38.16 31.27-30.71 33.89-38.16 41.85-38.16 34.99-22.51 38.87-13.33 41.21-7.57 43.02-13.43 53.42-38.16 61.87-38.16 45.02 0 37.35 0 33.96-7.57 31.2-14.92 28.44-7.57 25 0 17.33 0ZM65.5-14.5L65.5-14.5Q65.5-17.43 66.7-20.1 67.89-22.78 70.14-24.83 72.39-26.88 75.64-28.1 78.9-29.32 83.05-29.32L83.05-29.32Q87.18-29.32 90.49-28.09 93.8-26.86 96.1-24.71 98.41-22.56 99.64-19.65 100.88-16.75 100.88-13.43L100.88-13.43Q100.88-13.01 100.86-12.54 100.85-12.06 100.8-11.67L100.8-11.67 73.56-11.67Q74.02-10.38 75.06-9.3 76.1-8.23 77.66-7.45 79.22-6.67 81.27-6.24 83.32-5.81 85.81-5.81L85.81-5.81Q88.3-5.81 90.77-6.34 93.23-6.86 95.48-7.67L95.48-7.67 97.92-2.15Q96.51-1.49 95.05-0.99 93.6-0.49 92.03-0.16 90.45 0.17 88.73 0.34 87.01 0.51 85.1 0.51L85.1 0.51Q80.25 0.51 76.58-0.66 72.92-1.83 70.46-3.86 67.99-5.88 66.75-8.62 65.5-11.35 65.5-14.5ZM73.56-17.31L93.21-17.31Q92.82-18.51 92-19.54 91.18-20.58 89.96-21.35 88.74-22.12 87.13-22.56 85.52-23 83.59-23L83.59-23Q81.54-23 79.86-22.53 78.17-22.07 76.9-21.29 75.63-20.51 74.79-19.48 73.95-18.46 73.56-17.31L73.56-17.31ZM107.27-9.08L107.27-9.08Q107.27-11.16 108.17-12.87 109.08-14.58 110.88-15.81 112.69-17.04 115.39-17.71 118.09-18.38 121.67-18.38L121.67-18.38Q124.34-18.38 127.28-17.99 130.22-17.6 133.34-16.8L133.34-16.8Q133.22-18.16 132.51-19.32 131.81-20.48 130.55-21.33 129.29-22.17 127.52-22.63 125.75-23.1 123.51-23.1L123.51-23.1Q122.29-23.1 120.82-22.95 119.36-22.8 117.79-22.51 116.23-22.22 114.7-21.78 113.18-21.34 111.86-20.73L111.86-20.73 109.66-26.66Q111.3-27.25 113.17-27.73 115.03-28.22 116.99-28.58 118.94-28.93 120.89-29.13 122.85-29.32 124.68-29.32L124.68-29.32Q132.76-29.32 136.69-25.2 140.62-21.07 140.62-12.55L140.62-12.55 140.62 0 133.39 0 133.39-2.71Q132.27-2.05 130.94-1.46 129.61-0.88 128.05-0.44 126.48 0 124.69 0.26 122.9 0.51 120.89 0.51L120.89 0.51Q117.52 0.51 114.97-0.22 112.42-0.95 110.71-2.25 109-3.54 108.14-5.29 107.27-7.03 107.27-9.08ZM114.89-9.33L114.89-9.33Q114.89-8.62 115.25-7.97 115.62-7.32 116.43-6.82 117.23-6.32 118.49-6.02 119.75-5.71 121.53-5.71L121.53-5.71Q123.43-5.71 125.21-6.05 127-6.4 128.54-6.96 130.07-7.52 131.32-8.25 132.56-8.98 133.39-9.77L133.39-9.77 133.39-11.04Q131.73-11.5 130.11-11.82 128.49-12.13 127.01-12.32 125.53-12.5 124.23-12.57 122.92-12.65 121.94-12.65L121.94-12.65Q119.92-12.65 118.57-12.38 117.23-12.11 116.4-11.66 115.57-11.21 115.23-10.6 114.89-9.99 114.89-9.33ZM150.16 0L150.16-28.81 157.39-28.81 157.39-24.66Q159.78-26.44 162.44-27.73 165.1-29.03 167.74-29.71L167.74-29.71 169.87-23.1Q165.69-22.68 162.53-21.23 159.37-19.78 157.39-17.14L157.39-17.14 157.39 0 150.16 0ZM192.59 9.72L195.28 3.61Q196.4 4.35 197.72 4.91 199.04 5.47 200.46 5.83 201.89 6.2 203.38 6.38 204.87 6.57 206.34 6.57L206.34 6.57Q211.32 6.57 214.01 4.43 216.71 2.29 216.71-1.98L216.71-1.98 216.71-2.95Q215.76-2.29 214.57-1.75 213.39-1.2 212.04-0.81 210.68-0.42 209.18-0.21 207.68 0 206.14 0L206.14 0Q202.84 0 200.24-0.96 197.64-1.93 195.85-3.8 194.05-5.66 193.1-8.4 192.15-11.13 192.15-14.65L192.15-14.65 192.15-28.81 199.35-28.81 199.35-16.65Q199.35-11.43 201.34-8.95 203.33-6.47 207.63-6.47L207.63-6.47Q210.66-6.47 212.99-7.53 215.32-8.59 216.71-10.25L216.71-10.25 216.71-28.81 223.94-28.81 223.94-3.3Q223.94 0.83 222.77 3.87 221.59 6.91 219.36 8.91 217.13 10.91 213.88 11.9 210.63 12.89 206.51 12.89L206.51 12.89Q202.48 12.89 198.99 12.04 195.5 11.18 192.59 9.72L192.59 9.72ZM231.55-14.4L231.55-14.4Q231.55-17.5 232.81-20.21 234.07-22.92 236.4-24.95 238.73-26.98 242.04-28.15 245.35-29.32 249.47-29.32L249.47-29.32Q253.6-29.32 256.91-28.15 260.21-26.98 262.55-24.95 264.88-22.92 266.13-20.21 267.39-17.5 267.39-14.4L267.39-14.4Q267.39-11.3 266.13-8.59 264.88-5.88 262.55-3.86 260.21-1.83 256.91-0.66 253.6 0.51 249.47 0.51L249.47 0.51Q245.35 0.51 242.04-0.66 238.73-1.83 236.4-3.86 234.07-5.88 232.81-8.59 231.55-11.3 231.55-14.4ZM239.15-14.4L239.15-14.4Q239.15-12.67 239.84-11.12 240.54-9.57 241.87-8.39 243.2-7.2 245.11-6.51 247.03-5.81 249.47-5.81L249.47-5.81Q251.91-5.81 253.83-6.51 255.75-7.2 257.08-8.39 258.41-9.57 259.1-11.12 259.8-12.67 259.8-14.4L259.8-14.4Q259.8-16.14 259.1-17.7 258.41-19.26 257.08-20.45 255.75-21.63 253.83-22.33 251.91-23.02 249.47-23.02L249.47-23.02Q247.03-23.02 245.11-22.33 243.2-21.63 241.87-20.45 240.54-19.26 239.84-17.7 239.15-16.14 239.15-14.4ZM274.69-13.75L274.69-28.83 281.89-28.83 281.89-14.77Q281.89-12.77 282.33-11.12 282.77-9.47 283.83-8.3 284.89-7.13 286.66-6.48 288.43-5.83 291.07-5.83L291.07-5.83Q292.32-5.83 293.6-6.1 294.88-6.37 296.05-6.85 297.22-7.32 298.24-7.98 299.25-8.64 299.98-9.42L299.98-9.42 299.98-28.83 307.21-28.83 307.21 0 299.98 0 299.98-2.47Q297.32-0.88 294.64-0.2 291.95 0.49 289.53 0.49L289.53 0.49Q285.58 0.49 282.76-0.46 279.94-1.42 278.14-3.23 276.35-5.05 275.52-7.7 274.69-10.35 274.69-13.75L274.69-13.75ZM316.39 0L316.39-28.81 323.61-28.81 323.61-24.66Q326.01-26.44 328.67-27.73 331.33-29.03 333.96-29.71L333.96-29.71 336.09-23.1Q331.91-22.68 328.75-21.23 325.59-19.78 323.61-17.14L323.61-17.14 323.61 0 316.39 0ZM362.4 0L362.4-23.39 355.44-23.39 355.44-28.81 362.4-28.81 362.4-37.77 369.63-37.77 369.63-28.81 376.59-28.81 376.59-23.39 369.63-23.39 369.63 0 362.4 0ZM383 0L383-28.81 390.23-28.81 390.23-24.66Q392.62-26.44 395.29-27.73 397.95-29.03 400.58-29.71L400.58-29.71 402.71-23.1Q398.53-22.68 395.37-21.23 392.21-19.78 390.23-17.14L390.23-17.14 390.23 0 383 0ZM406.71-14.5L406.71-14.5Q406.71-17.43 407.9-20.1 409.1-22.78 411.35-24.83 413.59-26.88 416.85-28.1 420.11-29.32 424.26-29.32L424.26-29.32Q428.39-29.32 431.7-28.09 435-26.86 437.31-24.71 439.62-22.56 440.85-19.65 442.08-16.75 442.08-13.43L442.08-13.43Q442.08-13.01 442.07-12.54 442.06-12.06 442.01-11.67L442.01-11.67 414.76-11.67Q415.23-10.38 416.27-9.3 417.3-8.23 418.87-7.45 420.43-6.67 422.48-6.24 424.53-5.81 427.02-5.81L427.02-5.81Q429.51-5.81 431.98-6.34 434.44-6.86 436.69-7.67L436.69-7.67 439.13-2.15Q437.71-1.49 436.26-0.99 434.81-0.49 433.23-0.16 431.66 0.17 429.94 0.34 428.22 0.51 426.31 0.51L426.31 0.51Q421.45 0.51 417.79-0.66 414.13-1.83 411.66-3.86 409.2-5.88 407.95-8.62 406.71-11.35 406.71-14.5ZM414.76-17.31L434.42-17.31Q434.03-18.51 433.21-19.54 432.39-20.58 431.17-21.35 429.95-22.12 428.34-22.56 426.73-23 424.8-23L424.8-23Q422.75-23 421.06-22.53 419.38-22.07 418.11-21.29 416.84-20.51 416-19.48 415.16-18.46 414.76-17.31L414.76-17.31ZM449.85 0L449.85-28.81 457.07-28.81 457.07-26.37Q459.95-28 462.58-28.66 465.2-29.32 467.72-29.32L467.72-29.32Q471.01-29.32 473.82-28.36 476.63-27.39 478.68-25.49 480.73-23.58 481.89-20.74 483.05-17.9 483.05-14.16L483.05-14.16 483.05 0 475.85 0 475.85-12.99Q475.85-15.36 475.18-17.22 474.5-19.09 473.25-20.37 471.99-21.66 470.19-22.33 468.4-23 466.18-23L466.18-23Q465.01-23 463.77-22.75 462.54-22.51 461.36-22.06 460.17-21.61 459.07-20.94 457.98-20.26 457.07-19.41L457.07-19.41 457.07 0 449.85 0ZM489.69-14.28L489.69-14.28Q489.69-17.72 490.98-20.5 492.27-23.27 494.56-25.23 496.84-27.2 499.98-28.26 503.11-29.32 506.78-29.32L506.78-29.32Q508.34-29.32 509.86-29.13 511.39-28.93 512.79-28.59 514.2-28.25 515.43-27.77 516.66-27.29 517.62-26.73L517.62-26.73 517.62-40.5 524.84-40.5 524.84 0 517.62 0 517.62-2.71Q516.66-2.05 515.37-1.46 514.08-0.88 512.59-0.44 511.1 0 509.5 0.26 507.9 0.51 506.34 0.51L506.34 0.51Q502.67 0.51 499.61-0.56 496.55-1.64 494.35-3.59 492.15-5.54 490.92-8.26 489.69-10.99 489.69-14.28ZM497.28-14.28L497.28-14.28Q497.28-12.55 497.98-11.01 498.67-9.47 499.98-8.31 501.28-7.15 503.13-6.48 504.97-5.81 507.26-5.81L507.26-5.81Q508.73-5.81 510.19-6.09 511.66-6.37 513.01-6.88 514.37-7.4 515.55-8.13 516.74-8.86 517.62-9.77L517.62-9.77 517.62-19.75Q516.52-20.63 515.3-21.24 514.08-21.85 512.81-22.24 511.54-22.63 510.24-22.81 508.95-23 507.73-23L507.73-23Q505.24-23 503.3-22.33 501.36-21.66 500.03-20.48 498.7-19.31 497.99-17.72 497.28-16.14 497.28-14.28Z" opacity="1" transform="matrix(1,0,0,1,0,0)" fill="#0080ff" class="slogan-text-1" data-fill-palette-color="secondary" id="text-1"></path></svg></g></svg></g></svg></g></svg></g><g><svg viewBox="0 0 104.21145662473796 83.81385455222124" height="83.81385455222124" width="104.21145662473796"><g><svg xmlns="http://www.w3.org/2000/svg" xmlns:xlink="http://www.w3.org/1999/xlink" version="1.1" x="0" y="0" viewBox="0 9.78600025177002 100.0003433227539 80.42699432373047" enable-background="new 0 0 100 100" xml:space="preserve" width="104.21145662473796" height="83.81385455222124" class="icon-icon-0" data-fill-palette-color="accent" id="icon-0"><path d="M49.942 52.994c13.552-0.488 27.103-0.977 40.653-1.465-2.527-4.177-3.159-7.831-7.989-8.461-7.229-0.94-14.458-1.883-21.688-2.826-14.023-1.827-28.05-3.654-42.075-5.48C20.101 36.792 39.724 53.361 49.942 52.994z" fill="#010c80" data-fill-palette-color="accent"></path><path d="M0 9.786c4.391 7.257 26.615 23.072 32.953 23.886 17.33 2.231 34.657 4.46 51.986 6.688-3.393-5.607-4.18-9.35-10.312-10.959-8.904-2.341-17.812-4.683-26.717-7.023C31.94 18.182 15.97 13.984 0 9.786z" fill="#010c80" data-fill-palette-color="accent"></path><path d="M63.108 66.207c10.413-2.219 20.826-4.439 31.241-6.66-2.028-3.346-2.034-5.359-5.827-5.189-6.158 0.273-12.314 0.549-18.471 0.822-11.343 0.506-22.686 1.014-34.028 1.518C37.298 58.064 54.94 67.947 63.108 66.207z" fill="#010c80" data-fill-palette-color="accent"></path><path d="M87.682 90.213c5.725-3.719 7.262-7.721 10.519-13.807 3.651-6.824 1.257-7.844-2.821-14.596-0.417-0.688-5.842 0.232-6.453 0.904-0.745 0.818-0.248 5.455-0.294 6.496C88.315 76.211 87.998 83.213 87.682 90.213z" fill="#010c80" data-fill-palette-color="accent"></path><path d="M86.35 63.447c-3.795 0.809-8.604 0.191-9.572 4.229-1.373 5.736-2.746 11.475-4.12 17.211C81.904 82.678 86.028 71.582 86.35 63.447z" fill="#010c80" data-fill-palette-color="accent"></path><path d="M74.666 66.121c-9.148 1.953-8.956 4.611-12.879 13.18C68.007 78.711 73.811 71.941 74.666 66.121z" fill="#010c80" data-fill-palette-color="accent"></path></svg></g></svg></g></svg></g></svg></g></svg></g><defs></defs></svg><rect width="395.52" height="247.2" fill="none" stroke="none" visibility="hidden"></rect></g></svg></g></svg>